<?xml version="1.0" encoding="utf-8"?>
<!-- Generator: Adobe Illustrator 25.1.0, SVG Export Plug-In . SVG Version: 6.00 Build 0)  -->
<svg version="1.1" id="Layer_1" xmlns="http://www.w3.org/2000/svg" xmlns:xlink="http://www.w3.org/1999/xlink" x="0px" y="0px"
	 viewBox="0 0 72 72" style="enable-background:new 0 0 72 72;" xml:space="preserve">
<style type="text/css">
	.st0{fill:#9FCB56;stroke:#248D3B;stroke-width:4;}
	.st1{fill:#E46767;stroke:#AE435D;stroke-width:4;}
	.st2{fill:#FF7354;stroke:#FF5232;stroke-width:4;}
	.st3{fill:none;stroke:#AE435D;stroke-width:4;}
</style>
<path class="st0" d="M36,18c4,1,8.7-0.2,12.1-3.4c3.4-3.2,4.6-7.6,3.6-11.4c-4-1-8.7,0.2-12.1,3.4C36.2,9.8,34.9,14.2,36,18z"/>
<path class="st1" d="M36,47.4c8.5,0,8.5-6,17-6c4.5,0,6.6,1.7,8.9,3.3c0.4,0.3,0.9,0,0.9-0.4c0.1-1.1,0.2-2.2,0.2-3.4
	C63,27.6,54.9,21,48.2,21c-5.4,0-6.8,2.6-12.2,2.6S29.2,21,23.8,21C17.1,21,9,27.6,9,40.9c0,1.1,0.1,2.2,0.2,3.2
	c0.1,0.5,0.6,0.7,1,0.4c2.2-1.6,4.3-3.2,8.8-3.2C27.5,41.4,27.5,47.4,36,47.4z"/>
<path class="st2" d="M53,41.4c-8.5,0-8.5,6-17,6c-8.5,0-8.5-6-17-6c-5,0-7.1,2.1-9.6,3.8C11,56.5,19,66,23.8,66
	c5.4,0,8.1-2.6,12.2-2.6S42.8,66,48.2,66C53,66,61,56.6,62.7,45.1C60.1,43.4,58,41.4,53,41.4z"/>
<rect x="-20.7" y="-30.6" class="st3" width="11.1" height="7"/>
</svg>
