<svg xmlns="http://www.w3.org/2000/svg" xmlns:xlink="http://www.w3.org/1999/xlink" viewBox="0 0 1000 1000"><defs><style>.cls-1,.cls-2{fill:none;}.cls-2{stroke:#248d3b;}.cls-2,.cls-4,.cls-5,.cls-6{stroke-miterlimit:10;stroke-width:20px;}.cls-3{fill:url(#linear-gradient);}.cls-4{fill:#e46767;stroke:#ae435d;}.cls-5,.cls-7{fill:#ff7354;}.cls-5{stroke:#ff5232;}.cls-6{fill:#f29183;stroke:#ff7354;}.cls-8{fill:url(#linear-gradient-2);}.cls-9{fill:url(#linear-gradient-3);}.cls-10{fill:url(#radial-gradient);}.cls-11{fill:url(#radial-gradient-2);}.cls-12{fill:#ae435d;}</style><linearGradient id="linear-gradient" x1="830.12" y1="20.55" x2="523.21" y2="197.93" gradientUnits="userSpaceOnUse"><stop offset="0.02" stop-color="#9fcb56"/><stop offset="0.46" stop-color="#64b843"/><stop offset="0.58" stop-color="#5cb342"/><stop offset="0.77" stop-color="#47a53f"/><stop offset="0.99" stop-color="#258e3b"/><stop offset="1" stop-color="#248d3b"/></linearGradient><linearGradient id="linear-gradient-2" x1="259.05" y1="206.24" x2="547.94" y2="578.31" gradientUnits="userSpaceOnUse"><stop offset="0" stop-color="#e46767"/><stop offset="0.3" stop-color="#df6466"/><stop offset="0.51" stop-color="#d55d64"/><stop offset="0.87" stop-color="#ba4b5f"/><stop offset="1" stop-color="#ae435d"/></linearGradient><linearGradient id="linear-gradient-3" x1="199.17" y1="553.97" x2="270.91" y2="649.56" gradientUnits="userSpaceOnUse"><stop offset="0" stop-color="#ff7354"/><stop offset="1" stop-color="#ff5232"/></linearGradient><radialGradient id="radial-gradient" cx="295.01" cy="360.14" r="53.61" gradientTransform="matrix(1.24, -0.09, 0.14, 0.79, -129.43, 84.89)" gradientUnits="userSpaceOnUse"><stop offset="0" stop-color="#f29183"/><stop offset="0.15" stop-color="#f29183" stop-opacity="0.99"/><stop offset="0.28" stop-color="#f29183" stop-opacity="0.94"/><stop offset="0.41" stop-color="#f29183" stop-opacity="0.87"/><stop offset="0.53" stop-color="#f29183" stop-opacity="0.76"/><stop offset="0.64" stop-color="#f29183" stop-opacity="0.63"/><stop offset="0.76" stop-color="#f29183" stop-opacity="0.46"/><stop offset="0.87" stop-color="#f29183" stop-opacity="0.26"/><stop offset="0.98" stop-color="#f29183" stop-opacity="0.04"/><stop offset="1" stop-color="#f29183" stop-opacity="0"/></radialGradient><radialGradient id="radial-gradient-2" cx="225.4" cy="442.53" r="26.18" gradientTransform="matrix(1.26, 0, 0.01, 0.79, -57.45, 65.21)" xlink:href="#radial-gradient"/></defs><g id="Layer_2" data-name="Layer 2"><g id="Layer_2-2" data-name="Layer 2"><rect class="cls-1" width="1000" height="1000"/><path class="cls-2" d="M433.93,203.61s61.4-47.18,105.51-62.07"/><path class="cls-3" d="M507.06,163.34C526.36,172.6,734.59,266,865.51,56.28c1.43-2.29.11-5.12-2.79-6-278.81-85.78-354.67,90.29-361.18,107l-.09.22a3.2,3.2,0,0,0,1.91,4.17Z"/><path class="cls-4" d="M890.08,488.9c-.36.29-2.54-3.89-2.91-3.6,1.67,53.18-129.52,143.91-311,211.91C534.64,712.75,493.83,725.85,455,736.4c15.9,7.17,35,12,61,12,98.58,0,98.58-70,197.16-70,79.6,0,94.93,45.65,149.79,63.22,29.46-54.81,47.36-109,47.36-150.57A265.31,265.31,0,0,0,890.08,488.9Z"/><path class="cls-5" d="M516,748.44c-26,0-45.13-4.87-61-12C371.26,759.16,296.73,770,244.43,767.54c-15.82,3-31,5.53-45.31,7.44,41.09,66.14,97.29,129.53,157.32,168.61,55.82,36.33,96.62,7.82,165,7.82s109.15,28.51,165-7.82C756.45,898,821.29,819.23,863,741.65c-54.86-17.57-70.19-63.22-149.79-63.22C614.61,678.43,614.61,748.44,516,748.44Z"/><path class="cls-6" d="M883.78,472.51c-27.14-50.29-208.89-31.21-405.95,42.6S143,689.53,170.18,739.81c9.1,16.87,35.61,25.92,74.25,27.73C296.73,770,371.26,759.16,455,736.4c38.83-10.55,79.64-23.65,121.12-39.19,181.53-68,312.72-158.73,311-211.91A28.39,28.39,0,0,0,883.78,472.51Z"/><path class="cls-7" d="M529.64,602.33c.81,3.06,11.38,36.29,77.44,4.78.72-.34,1.1-1,.83-1.36-25.31-34.63-73.24-7.58-77.76-4.93l-.06,0c-.44.24-.7.63-.62.9Z"/><path class="cls-7" d="M525.25,590.5c4.74-.48,56.29-6.76,72.68-51,.17-.46-.28-.73-.95-.59-64.05,14.26-72.56,48-73.25,51.24v0c-.08.32.19.51.62.46Z"/><path class="cls-7" d="M512.43,585.61c3.34-3.51,36.5-39.73-10.63-47.08a2,2,0,0,0-1.62.71c-35.57,45.26,6.3,47.46,10.38,47.56h.05a1.68,1.68,0,0,0,1.19-.53Z"/><path class="cls-7" d="M505.76,596.09c-2.41-2-28.36-21.61-83.7,17.92-.62.44-.82,1-.42,1.23,39.68,20.88,80.67-14.61,84.32-17.89l.05,0c.36-.31.45-.67.22-.85Z"/><path class="cls-7" d="M513.81,603.32c-5.09,2-59.38,24.79-53.56,67.49.07.49.78.58,1.52.2,69.6-36.42,55.45-65.42,54-68l0,0c-.12-.25-.55-.29-1-.1Z"/><path class="cls-8" d="M371.35,604.8c47-15.82,96.21-34.5,146.15-55.83,134.21-57.29,246.72-122,317.13-178.51-11.24-27.29-26.73-52.6-46.33-71.52-70.47-68-180.13-81.56-311.15-81.56l-9.39,0-9.39,0c-131,0-240.68,13.55-311.15,81.56-45.06,43.5-68.4,120.78-68.4,178.18,0,40.72,17.19,93.62,45.62,147.32,47.81-19.36,65.72-60,140.79-60C319.53,564.47,343.92,585.72,371.35,604.8Z"/><path class="cls-9" d="M265.23,564.47c-75.07,0-93,40.61-140.79,60,6.45,12.2,13.49,24.44,21,36.58,62.74-8.37,140.78-27.59,225.87-56.22C343.92,585.72,319.53,564.47,265.23,564.47Z"/><ellipse class="cls-10" cx="287.89" cy="343.77" rx="75.43" ry="48.88" transform="translate(-54.04 53.69) rotate(-9.75)"/><ellipse class="cls-11" cx="230.22" cy="414.79" rx="37.17" ry="23.66" transform="translate(-3.24 1.81) rotate(-0.45)"/><path class="cls-12" d="M461.77,221.86c-3.74-25.67-9.94-51.4-12.14-57.19a22.7,22.7,0,0,0-14.58-14.56c-14.21-4.78-32.3,2.37-48.12,10l-.65.34c-13.39,7.84-10.78,27,8.47,62.12A491,491,0,0,0,422.69,267l.31.41c4.41,5.33,13.85,16.73,24.72,16.73a15.51,15.51,0,0,0,5.95-1.19C462,279.49,468.75,269.71,461.77,221.86Z"/></g></g></svg>