<svg width="72" height="72" viewBox="0 0 72 72" fill="none" xmlns="http://www.w3.org/2000/svg">
<path d="M34.4237 37.5764C36.6703 39.823 40.3127 39.823 42.5593 37.5764C44.8059 35.3298 44.8059 31.6874 42.5593 29.4408C40.3127 27.1942 36.6703 27.1942 34.4237 29.4408C32.1771 31.6874 32.1771 35.3298 34.4237 37.5764ZM34.4237 37.5764L9 63.0001" stroke="#9FCB56" stroke-width="4"/>
<path d="M46.5267 13.0691C40.1344 18.3067 32.0136 20.3747 24.2562 19.2732L9 63L52.7268 47.7438C51.6253 39.9864 53.6933 31.8656 58.9309 25.4733M46.5267 13.0691L44.5932 11.1356L50.6949 3M46.5267 13.0691L58.9309 25.4733M58.9309 25.4733L60.8644 27.4068L69 21.3051" stroke="#F9F9F9" stroke-width="4"/>
</svg>
